<?xml version="1.0" encoding="utf-8"?>
<!-- Generator: Adobe Illustrator 27.5.0, SVG Export Plug-In . SVG Version: 6.00 Build 0)  -->
<svg version="1.1" id="Laag_1" xmlns="http://www.w3.org/2000/svg" xmlns:xlink="http://www.w3.org/1999/xlink" x="0px" y="0px"
	 viewBox="0 0 310.7 84.6" style="enable-background:new 0 0 310.7 84.6;" xml:space="preserve">
<style type="text/css">
	.st0{fill:#ABCFAC;}
	.st1{font-family:'ArticulatCF-DemiBold';}
	.st2{font-size:24px;}
	.st3{fill:none;stroke:#FFFFFF;stroke-width:0.25;stroke-miterlimit:10;}
</style>
<text transform="matrix(1 0 0 1 36.2521 49.5063)" class="st0 st1 st2">Vivanne, niet Vivianne</text>
<path class="st3" d="M107.2,25.5c-26.5-0.6-53.6-6.2-79.1,1.1c-7.2,2.1-14.6,5.5-18.5,11.9c-1.4,2.4-2.3,5.2-2.1,7.9
	c0.3,3.8,2.6,7.2,5.6,9.5c3,2.3,6.6,3.6,10.3,4.7c13.8,3.9,28.3,4,42.7,4.4c10.4,0.3,20.8,0.9,31.2,0.3s20.8-2.7,30.2-7.3
	c4.4-2.1,8.8-5.4,9.7-10.1c0.9-4.7-2-9.2-5.2-12.7c-6.7-7.2-15.6-12.1-25-15.1s-19.3-4-29.1-4.2c-10.9-0.2-21.8,0.6-32.3,3.5
	s-20.5,8.1-28.1,15.8"/>
<path class="st3" d="M195.4,61.4c18.8-13.2,38.9-24.5,59-35.7c11.4-6.4,22.8-12.8,34.3-19.1c-32.1,24.2-64.1,48.6-94.2,75.2
	c29-22,60.5-40.9,93.6-56.3c-21.6,13.2-42.5,27.6-62.5,43.1"/>
</svg>
